<?xml version="1.0" encoding="utf-8"?>
<!-- Generator: Adobe Illustrator 24.2.0, SVG Export Plug-In . SVG Version: 6.00 Build 0)  -->
<svg version="1.1" id="Layer_1" xmlns="http://www.w3.org/2000/svg" xmlns:xlink="http://www.w3.org/1999/xlink" x="0px" y="0px"
	 viewBox="0 0 200 50" style="enable-background:new 0 0 200 50;" xml:space="preserve">
<style type="text/css">
	.st0{fill:#FFFFFF;}
	.st1{fill:#FF0000;}
</style>
<g>
	<polygon class="st0" points="98.62,14.67 100.15,14.67 111.47,38.08 103.45,36.47 99.17,26.35 94.89,36.46 87.04,38.1 	"/>
	<path class="st0" d="M52.69,46.17h-6.47v-0.29c-0.46,0.3-1,0.45-1.59,0.45c-0.57,0-1.09-0.15-1.54-0.42v0.26h-3.15V46.1
		c-0.14,0.05-0.28,0.09-0.41,0.12c-0.29,0.07-0.6,0.1-0.9,0.1c-0.37,0-0.71-0.05-1.02-0.15h-2.98l-0.47-0.61v0.61h-3.24v-7.4h3.24
		v0.43l0.33-0.43h4.06l-2.83,3.58l0.22,0.28c0.14-0.41,0.38-0.78,0.7-1.1c0.56-0.55,1.27-0.84,2.07-0.84c0.46,0,0.88,0.1,1.25,0.28
		v-1.98l3.15-0.43v2.54c0.45-0.28,0.97-0.42,1.54-0.42c0.59,0,1.13,0.15,1.59,0.45v-0.29h2.62c0.21-0.06,0.43-0.09,0.65-0.09
		c0.42,0,0.79,0.09,1.1,0.28c0.34-0.19,0.71-0.28,1.11-0.28c0.41,0,0.73,0.08,0.98,0.21v-0.11h1.99c0.11-0.03,0.22-0.06,0.34-0.08
		c0.17-0.03,0.35-0.05,0.53-0.05c0.76,0,1.42,0.28,1.92,0.82c0,0,0.01,0.01,0.01,0.01c0.02-0.02,0.04-0.04,0.05-0.05
		c0.53-0.53,1.23-0.8,2.02-0.8c0.59,0,1.12,0.15,1.58,0.44v-2.13l3.1-0.44v2.28h3.23v-2.06h2.42c1.25,0,2.26,0.32,3.02,0.96
		c0.03,0.02,0.06,0.05,0.09,0.08c0.08-0.15,0.18-0.28,0.3-0.41c0.31-0.31,0.71-0.48,1.15-0.48c0.44,0,0.84,0.16,1.15,0.47
		c0.31,0.31,0.47,0.71,0.47,1.15c0,0.12-0.01,0.23-0.03,0.34c0.32-0.15,0.68-0.22,1.09-0.22c0.26,0,0.54,0.04,0.82,0.11
		c0.08,0.02,0.17,0.05,0.26,0.07v-1.86l3.1-0.44v2.28h6.17v0.07c0.32-0.15,0.69-0.23,1.1-0.23c0.26,0,0.54,0.04,0.82,0.11
		c0.06,0.02,0.13,0.03,0.2,0.05c-0.02-0.09-0.02-0.18-0.02-0.28c0-0.44,0.16-0.84,0.47-1.15c0.31-0.31,0.71-0.48,1.15-0.48
		c0.45,0,0.85,0.16,1.15,0.48c0.31,0.31,0.47,0.71,0.47,1.15c0,0.14-0.02,0.27-0.05,0.39v5.23h-3.15v-0.04
		c-0.31,0.13-0.66,0.2-1.06,0.2c-0.29,0-0.58-0.04-0.85-0.11c-0.15-0.04-0.31-0.09-0.46-0.15l-2.82,0.42v-0.17
		c-0.08,0.01-0.17,0.01-0.25,0.01c-0.35,0-0.64-0.06-0.87-0.16h-5.1v-0.05c-0.32,0.14-0.68,0.21-1.09,0.21
		c-0.29,0-0.58-0.04-0.85-0.11c-0.08-0.02-0.16-0.04-0.24-0.07v0.02h-3.15v-0.95c-0.18,0.15-0.38,0.29-0.59,0.41
		c-0.34,0.19-0.71,0.34-1.1,0.42c-0.36,0.08-0.79,0.12-1.3,0.12h-8.76v-0.28c-0.46,0.29-0.99,0.44-1.58,0.44
		c-0.79,0-1.49-0.28-2.02-0.81c-0.02-0.02-0.04-0.04-0.06-0.06c-0.02,0.02-0.04,0.04-0.06,0.06c-0.43,0.43-0.97,0.69-1.59,0.77v1.15
		l-3.13,0.53V46.17z M67.46,45.79v-4.82l-1.88,2.31L67.46,45.79z M70.71,42.87c0.05-0.04,0.14-0.12,0.14-0.39
		c0-0.27-0.08-0.35-0.14-0.4V42.87z M128.42,46.11l-1.59,0.44l-0.07-0.23c-0.09,0.01-0.18,0.02-0.27,0.02
		c-0.54,0-1.02-0.16-1.44-0.48v0.53h-1.48l-2.03-1.9v1.69h-3.16V38.6h1.49l2.02,1.89v-1.72h3.16v2.45c0.47-0.36,1.03-0.55,1.66-0.55
		c0.2,0,0.4,0.03,0.61,0.08c0.11,0.03,0.23,0.07,0.36,0.11l0.75-0.03v0h0.06l1-0.04v0.04h0.93c0.11-0.04,0.23-0.06,0.34-0.08
		c0.17-0.03,0.35-0.05,0.53-0.05c0.76,0,1.42,0.28,1.92,0.82c0,0,0.01,0.01,0.01,0.01c0.02-0.02,0.04-0.04,0.05-0.05
		c0.53-0.53,1.23-0.8,2.02-0.8c0.76,0,1.44,0.26,1.97,0.74c0.06-0.07,0.13-0.13,0.2-0.2c0.42-0.37,0.96-0.55,1.59-0.55
		c0.26,0,0.54,0.04,0.82,0.11c0.25,0.06,0.53,0.16,0.83,0.29l0.33,0.14c0.48-0.35,1.07-0.54,1.71-0.54c0.79,0,1.49,0.28,2.03,0.8
		c0.54,0.53,0.82,1.23,0.82,2.03c0,0.8-0.28,1.5-0.82,2.03c-0.53,0.53-1.23,0.81-2.03,0.81c-0.74,0-1.39-0.24-1.91-0.7
		c-0.04,0.05-0.09,0.09-0.14,0.13c-0.43,0.38-0.98,0.57-1.65,0.57c-0.29,0-0.58-0.04-0.85-0.11c-0.27-0.07-0.55-0.18-0.82-0.32
		l-0.29-0.16c-0.5,0.39-1.11,0.59-1.78,0.59c-0.79,0-1.49-0.28-2.02-0.81c-0.02-0.02-0.04-0.04-0.06-0.06
		c-0.02,0.02-0.04,0.04-0.06,0.07c-0.43,0.42-0.97,0.69-1.59,0.77v1.15l-3.13,0.53V46.11z M160.8,46.32
		c-0.09,0.01-0.18,0.02-0.27,0.02c-0.38,0-0.74-0.08-1.06-0.24l-2.54,0.17l-0.23-0.11c-0.15-0.07-0.28-0.16-0.4-0.26l-2.39,0.66
		l-0.07-0.23c-0.09,0.01-0.18,0.02-0.27,0.02c-0.72,0-1.36-0.3-1.84-0.87c-0.02-0.02-0.03-0.04-0.05-0.06
		c-0.08,0.07-0.16,0.13-0.24,0.19c-0.56,0.39-1.3,0.57-2.27,0.57h-2.45v-7.4h2.66c0.85,0,1.51,0.17,2,0.53
		c0.41,0.29,0.89,0.84,0.9,1.82c0.44-0.3,0.95-0.45,1.52-0.45c0.2,0,0.4,0.03,0.61,0.08c0.11,0.03,0.23,0.07,0.36,0.11l0.45-0.02
		v-0.01h0.36l0.13,0v-0.89l3.16-0.42v1.31h0.8v0.06c0.34-0.15,0.71-0.22,1.1-0.22c0.2,0,0.4,0.03,0.61,0.08
		c0.11,0.03,0.23,0.07,0.36,0.11l0.75-0.03v-1.85l3.1-0.44v2.28h3.35l-1.99,2.45l2.17,2.89h-6.62v-0.06l-1.59,0.44L160.8,46.32z
		 M96.65,46.36c-0.81,0-1.49-0.23-2.04-0.7c-0.59-0.5-0.9-1.16-0.9-1.91c0-0.53,0.15-1.02,0.43-1.45c0.1-0.15,0.23-0.3,0.37-0.45
		c-0.12-0.31-0.18-0.63-0.18-0.94c0-0.66,0.26-1.25,0.74-1.69c0.46-0.42,1.05-0.64,1.72-0.64c0.69,0,1.28,0.21,1.75,0.61
		c0.5,0.43,0.77,1.01,0.77,1.68c0,0.29-0.05,0.57-0.15,0.83l1.75,0.49l-0.21,0.91c-0.08,0.36-0.2,0.69-0.35,0.99
		c-0.02,0.04-0.04,0.09-0.07,0.13l0.64,0.76l3.16-6.39h1.31l1.36,2.82v-2.44l3.1-0.44v2.28h2.09c0.28-0.11,0.6-0.16,0.94-0.16
		c0.26,0,0.54,0.04,0.82,0.11c0.06,0.02,0.13,0.03,0.2,0.05c-0.02-0.09-0.02-0.18-0.02-0.28c0-0.44,0.16-0.84,0.48-1.15
		c0.31-0.31,0.71-0.47,1.15-0.47c0.44,0,0.84,0.16,1.15,0.47c0.31,0.31,0.47,0.71,0.47,1.15c0,0.13-0.02,0.26-0.04,0.39v5.23h-3.15
		v-0.04c-0.31,0.13-0.66,0.2-1.06,0.2c-0.29,0-0.58-0.04-0.85-0.11c-0.06-0.02-0.12-0.03-0.18-0.05h-6.35l-0.35-0.79h-0.93
		l-0.35,0.79h-5.91l-0.03-0.03c-0.09,0.03-0.17,0.06-0.26,0.08C97.33,46.32,96.99,46.36,96.65,46.36z M136.83,37.71V20.9h-6.5v-6.23
		h19.81v6.23h-6.47v16.81H136.83z M69.97,37.71V14.67h6.41c4.04,0,7.28,1.03,9.61,3.06c2.38,2.07,3.58,4.91,3.58,8.46
		c0,2.12-0.47,4.04-1.41,5.69c-0.94,1.66-2.32,3.04-4.12,4.11c-1.02,0.61-2.15,1.06-3.35,1.33c-1.17,0.26-2.62,0.39-4.31,0.39H69.97
		z M76.85,31.23c1.88,0,3.34-0.46,4.36-1.35c0.99-0.88,1.47-2.08,1.47-3.69c0-1.6-0.48-2.81-1.48-3.7
		c-1.01-0.91-2.48-1.36-4.35-1.36h-0.09v10.11H76.85z M123.49,37.71V26.96l-7.2,10.75h-6V14.67h6.46V25.4l7.2-10.73h6v23.04H123.49z
		 M45.26,37.71l-7.18-9.3v9.3h-7.17V3.22l7.17-1.2v19.41l4.89-6.34l0.27-0.41l0.53-0.01h8.09l-7.91,10.25l9.58,12.42V14.67H68.1
		v6.31h-8.25v2.21h4.32v5.92h-4.32v2.21h8.36v6.39L45.26,37.71z M161.37,37.71l-1.06-2.5c-1.18,0.33-2.41,0.5-3.65,0.5
		c-1.31,0-2.59-0.19-3.83-0.55l-1.08,2.56h-7.13l11.39-23.04h1.54l7.47,15.44l0.9,1.85l0,0l2.78,5.75H161.37z M155.12,29.76
		c0.5,0.1,1.02,0.16,1.54,0.16c0.46,0,0.91-0.04,1.36-0.12l-1.46-3.44L155.12,29.76z"/>
	<path class="st1" d="M99.54,15.65h-0.31L88.81,36.73l5.38-1.12l4.98-11.78l4.98,11.78l5.58,1.12L99.54,15.65z"/>
	<path d="M34.47,42.34l2.21,2.85h-1.57l-1.94-2.51v2.51H31.9v-5.44h1.28v2.37l1.8-2.37h1.55L34.47,42.34z M39.84,42.07
		c0.3,0.27,0.44,0.63,0.44,1.06c0,0.07,0,0.17-0.01,0.32l0,0.02l-0.11,0.15l-2.31,0.06c0.02,0.23,0.11,0.41,0.28,0.55
		c0.17,0.14,0.39,0.21,0.65,0.21c0.19,0,0.39-0.04,0.62-0.12c0.23-0.08,0.46-0.2,0.71-0.36l-0.13,1.04
		c-0.23,0.11-0.46,0.19-0.68,0.24c-0.22,0.05-0.45,0.08-0.68,0.08c-0.56,0-1.02-0.16-1.36-0.49c-0.35-0.32-0.52-0.75-0.52-1.27
		c0-0.54,0.19-1,0.57-1.37c0.38-0.37,0.84-0.56,1.38-0.56C39.16,41.66,39.54,41.8,39.84,42.07z M39.34,43.09
		c0-0.18-0.06-0.32-0.19-0.44c-0.13-0.11-0.28-0.17-0.47-0.17c-0.21,0-0.39,0.06-0.53,0.19c-0.14,0.12-0.23,0.3-0.27,0.52l1.47-0.05
		V43.09z M40.93,45.19h1.19v-5.51l-1.19,0.16V45.19z M45.97,42.17c0.35,0.35,0.53,0.79,0.53,1.33s-0.18,0.98-0.53,1.33
		c-0.35,0.35-0.8,0.52-1.34,0.52c-0.54,0-0.98-0.17-1.33-0.52c-0.35-0.35-0.53-0.79-0.53-1.33s0.18-0.98,0.53-1.33
		c0.35-0.35,0.8-0.52,1.33-0.52C45.18,41.65,45.62,41.83,45.97,42.17z M45.3,43.5c0-0.28-0.06-0.51-0.19-0.69
		c-0.12-0.18-0.28-0.27-0.47-0.27c-0.19,0-0.35,0.09-0.47,0.27c-0.12,0.18-0.19,0.41-0.19,0.69c0,0.29,0.06,0.52,0.19,0.7
		c0.12,0.18,0.28,0.26,0.47,0.26c0.19,0,0.35-0.09,0.47-0.27C45.23,44.02,45.3,43.79,45.3,43.5z M51.7,41.72
		c-0.23,0-0.44,0.05-0.64,0.16c-0.2,0.11-0.38,0.27-0.54,0.48c-0.11-0.23-0.25-0.39-0.41-0.49c-0.16-0.1-0.37-0.15-0.61-0.15
		c-0.23,0-0.43,0.05-0.62,0.16c-0.19,0.11-0.38,0.27-0.58,0.5v-0.57H47.2v3.38h1.17v-1.67c0-0.26,0.05-0.46,0.16-0.6
		c0.11-0.14,0.26-0.21,0.45-0.21c0.14,0,0.24,0.05,0.31,0.14c0.07,0.09,0.11,0.22,0.11,0.4v1.94h1.17v-1.67
		c0-0.26,0.05-0.46,0.16-0.6c0.11-0.14,0.26-0.21,0.45-0.21c0.13,0,0.24,0.05,0.31,0.14c0.07,0.09,0.11,0.22,0.11,0.4v1.94h1.17
		v-2.18c0-0.44-0.09-0.77-0.27-0.98C52.35,41.83,52.08,41.72,51.7,41.72z M56.75,42.19c0.32,0.34,0.47,0.77,0.47,1.31
		c0,0.55-0.17,1-0.51,1.34c-0.34,0.34-0.79,0.51-1.34,0.51c-0.07,0-0.15,0-0.23-0.01c-0.08-0.01-0.19-0.02-0.31-0.04v1.33l-1.17,0.2
		v-5.01h1.17c0.12-0.05,0.23-0.08,0.35-0.1c0.11-0.02,0.23-0.03,0.35-0.03C56.03,41.68,56.43,41.85,56.75,42.19z M56.02,43.49
		c0-0.27-0.07-0.49-0.21-0.66c-0.14-0.18-0.31-0.26-0.52-0.26c-0.06,0-0.13,0.01-0.2,0.02c-0.07,0.01-0.16,0.04-0.26,0.07v1.77
		c0.08,0.02,0.15,0.04,0.21,0.05c0.06,0.01,0.12,0.02,0.16,0.02c0.23,0,0.42-0.09,0.57-0.28C55.94,44.01,56.02,43.77,56.02,43.49z
		 M60.89,42.17c0.35,0.35,0.53,0.79,0.53,1.33s-0.18,0.98-0.53,1.33c-0.35,0.35-0.8,0.52-1.34,0.52c-0.54,0-0.98-0.17-1.33-0.52
		c-0.35-0.35-0.53-0.79-0.53-1.33s0.18-0.98,0.53-1.33c0.35-0.35,0.8-0.52,1.33-0.52C60.09,41.65,60.54,41.83,60.89,42.17z
		 M60.21,43.5c0-0.28-0.06-0.51-0.19-0.69c-0.12-0.18-0.28-0.27-0.47-0.27s-0.35,0.09-0.47,0.27c-0.12,0.18-0.19,0.41-0.19,0.69
		c0,0.29,0.06,0.52,0.19,0.7c0.12,0.18,0.28,0.26,0.47,0.26s0.35-0.09,0.47-0.27C60.15,44.02,60.21,43.79,60.21,43.5z M65.51,41.81
		h-1.23l-1.04,1.39v-3.53l-1.14,0.16v5.35h1.14v-1.8l1.25,1.8h1.3l-1.45-1.94L65.51,41.81z M73.14,42.47c0,0.51-0.11,0.95-0.34,1.35
		c-0.23,0.39-0.56,0.71-1,0.97c-0.25,0.14-0.52,0.25-0.82,0.31c-0.29,0.06-0.66,0.1-1.09,0.1h-1.44v-5.44h1.44
		c1.02,0,1.81,0.24,2.39,0.73C72.85,40.97,73.14,41.63,73.14,42.47z M71.82,42.47c0-0.48-0.16-0.87-0.48-1.14
		c-0.32-0.28-0.76-0.42-1.33-0.42h-0.29v3.11h0.29c0.57,0,1.01-0.14,1.33-0.41C71.66,43.34,71.82,42.96,71.82,42.47z M74.44,39.91
		c-0.18,0-0.33,0.06-0.46,0.19c-0.13,0.13-0.19,0.28-0.19,0.46c0,0.18,0.06,0.33,0.19,0.46c0.13,0.13,0.28,0.19,0.45,0.19
		c0.18,0,0.33-0.06,0.46-0.19c0.12-0.13,0.19-0.28,0.19-0.46c0-0.18-0.06-0.34-0.19-0.46C74.78,39.97,74.62,39.91,74.44,39.91z
		 M73.85,45.19h1.19v-3.54l-1.19,0.16V45.19z M77.6,43.11l-0.4-0.15c-0.14-0.05-0.23-0.09-0.28-0.13c-0.04-0.04-0.06-0.1-0.06-0.17
		c0-0.08,0.04-0.15,0.11-0.2c0.07-0.05,0.17-0.08,0.28-0.08c0.16,0,0.32,0.04,0.5,0.11c0.18,0.07,0.34,0.17,0.49,0.3l0.15-0.82
		c-0.25-0.11-0.48-0.19-0.68-0.24c-0.2-0.05-0.4-0.08-0.58-0.08c-0.4,0-0.71,0.1-0.95,0.31c-0.24,0.21-0.36,0.48-0.36,0.82
		c0,0.24,0.07,0.45,0.22,0.62c0.15,0.18,0.36,0.31,0.65,0.41l0.44,0.15c0.13,0.05,0.22,0.09,0.27,0.14
		c0.05,0.05,0.08,0.11,0.08,0.19c0,0.09-0.04,0.16-0.11,0.21c-0.08,0.05-0.17,0.08-0.3,0.08c-0.14,0-0.29-0.03-0.46-0.1
		c-0.16-0.07-0.4-0.19-0.69-0.38v0.93c0.2,0.11,0.4,0.19,0.6,0.24c0.2,0.05,0.4,0.08,0.61,0.08c0.42,0,0.76-0.11,1-0.32
		c0.24-0.22,0.37-0.51,0.37-0.88c0-0.26-0.07-0.47-0.2-0.63C78.14,43.36,77.92,43.22,77.6,43.11z M82.59,41.81h-1.23l-1.04,1.39
		v-3.53l-1.14,0.16v5.35h1.14v-1.8l1.25,1.8h1.3l-1.45-1.94L82.59,41.81z M85.32,43.55c0,0.26-0.06,0.46-0.17,0.6
		c-0.11,0.14-0.27,0.21-0.47,0.21c-0.14,0-0.25-0.05-0.32-0.14c-0.07-0.09-0.11-0.23-0.11-0.4v-2h-1.17v2.33
		c0,0.4,0.09,0.7,0.28,0.9c0.19,0.21,0.46,0.31,0.82,0.31c0.24,0,0.46-0.05,0.66-0.16c0.2-0.11,0.39-0.27,0.57-0.5v0.66l1.08-0.16
		v-3.38h-1.17V43.55z M89.04,43.11l-0.4-0.15c-0.14-0.05-0.23-0.09-0.28-0.13c-0.04-0.04-0.06-0.1-0.06-0.17
		c0-0.08,0.04-0.15,0.11-0.2c0.07-0.05,0.17-0.08,0.28-0.08c0.16,0,0.32,0.04,0.5,0.11c0.18,0.07,0.34,0.17,0.49,0.3l0.15-0.82
		c-0.25-0.11-0.48-0.19-0.68-0.24c-0.2-0.05-0.4-0.08-0.58-0.08c-0.4,0-0.71,0.1-0.95,0.31c-0.24,0.21-0.36,0.48-0.36,0.82
		c0,0.24,0.07,0.45,0.22,0.62c0.15,0.18,0.36,0.31,0.65,0.41l0.43,0.15c0.13,0.05,0.22,0.09,0.27,0.14
		c0.05,0.05,0.08,0.11,0.08,0.19c0,0.09-0.04,0.16-0.11,0.21c-0.08,0.05-0.17,0.08-0.3,0.08c-0.14,0-0.29-0.03-0.46-0.1
		c-0.17-0.07-0.4-0.19-0.69-0.38v0.93c0.2,0.11,0.4,0.19,0.6,0.24c0.2,0.05,0.4,0.08,0.61,0.08c0.42,0,0.76-0.11,1-0.32
		c0.24-0.22,0.37-0.51,0.37-0.88c0-0.26-0.07-0.47-0.2-0.63C89.59,43.36,89.36,43.22,89.04,43.11z M90.6,45.19h1.19v-3.54
		l-1.19,0.16V45.19z M91.19,39.91c-0.18,0-0.33,0.06-0.46,0.19c-0.12,0.13-0.19,0.28-0.19,0.46c0,0.18,0.06,0.33,0.19,0.46
		c0.13,0.13,0.28,0.19,0.45,0.19c0.18,0,0.33-0.06,0.46-0.19c0.13-0.13,0.19-0.28,0.19-0.46c0-0.18-0.06-0.34-0.19-0.46
		C91.52,39.97,91.37,39.91,91.19,39.91z M99.04,44.28l0.77,0.92h-1.44l-0.22-0.23c-0.26,0.14-0.51,0.25-0.76,0.32
		c-0.24,0.07-0.49,0.1-0.74,0.1c-0.57,0-1.04-0.16-1.41-0.47c-0.37-0.31-0.55-0.7-0.55-1.16c0-0.34,0.09-0.64,0.27-0.9
		c0.18-0.27,0.46-0.51,0.84-0.74c-0.16-0.2-0.28-0.39-0.36-0.59c-0.08-0.2-0.12-0.4-0.12-0.6c0-0.39,0.14-0.71,0.42-0.97
		c0.28-0.26,0.63-0.38,1.06-0.38c0.45,0,0.82,0.12,1.1,0.37c0.29,0.25,0.43,0.56,0.43,0.93c0,0.28-0.07,0.53-0.22,0.76
		c-0.15,0.23-0.38,0.45-0.7,0.67l0.99,1.17c0.07-0.07,0.13-0.16,0.18-0.28c0.06-0.11,0.13-0.3,0.23-0.58l0.94,0.26
		c-0.06,0.28-0.16,0.53-0.27,0.76C99.36,43.88,99.21,44.09,99.04,44.28z M96.37,40.85c0,0.1,0.03,0.21,0.1,0.33
		c0.07,0.12,0.16,0.24,0.29,0.37c0.19-0.1,0.33-0.22,0.43-0.34c0.1-0.12,0.15-0.25,0.15-0.38c0-0.13-0.04-0.24-0.13-0.32
		c-0.09-0.09-0.2-0.13-0.34-0.13c-0.15,0-0.27,0.04-0.37,0.13C96.42,40.61,96.37,40.72,96.37,40.85z M97.5,44.17l-1.04-1.28
		c-0.19,0.09-0.34,0.2-0.43,0.33c-0.1,0.13-0.14,0.28-0.14,0.44c0,0.21,0.08,0.38,0.23,0.51c0.15,0.13,0.35,0.2,0.6,0.2
		c0.11,0,0.24-0.02,0.36-0.05C97.2,44.28,97.35,44.23,97.5,44.17z M104.77,39.59l2.71,5.61h-1.36l-0.35-0.79h-2.21l-0.35,0.79h-1.31
		l2.77-5.61H104.77z M105.38,43.46l-0.71-1.7l-0.72,1.7H105.38z M111.13,41.81h-1.23l-1.03,1.39v-3.53l-1.14,0.16v5.35h1.14v-1.8
		l1.24,1.8h1.3l-1.45-1.94L111.13,41.81z M113.35,43.11l-0.4-0.15c-0.14-0.05-0.23-0.09-0.28-0.13c-0.04-0.04-0.06-0.1-0.06-0.17
		c0-0.08,0.04-0.15,0.11-0.2c0.07-0.05,0.17-0.08,0.28-0.08c0.15,0,0.32,0.04,0.5,0.11c0.18,0.07,0.34,0.17,0.49,0.3l0.15-0.82
		c-0.25-0.11-0.48-0.19-0.68-0.24c-0.2-0.05-0.4-0.08-0.58-0.08c-0.4,0-0.71,0.1-0.95,0.31c-0.24,0.21-0.36,0.48-0.36,0.82
		c0,0.24,0.07,0.45,0.22,0.62c0.15,0.18,0.36,0.31,0.65,0.41l0.44,0.15c0.13,0.05,0.22,0.09,0.27,0.14
		c0.05,0.05,0.08,0.11,0.08,0.19c0,0.09-0.04,0.16-0.11,0.21c-0.07,0.05-0.17,0.08-0.3,0.08c-0.14,0-0.29-0.03-0.46-0.1
		c-0.16-0.07-0.4-0.19-0.69-0.38v0.93c0.2,0.11,0.4,0.19,0.6,0.24c0.2,0.05,0.4,0.08,0.61,0.08c0.42,0,0.76-0.11,1-0.32
		c0.25-0.22,0.37-0.51,0.37-0.88c0-0.26-0.07-0.47-0.2-0.63C113.9,43.36,113.67,43.22,113.35,43.11z M115.49,39.91
		c-0.18,0-0.33,0.06-0.46,0.19c-0.13,0.13-0.19,0.28-0.19,0.46c0,0.18,0.06,0.33,0.19,0.46c0.13,0.13,0.28,0.19,0.45,0.19
		c0.18,0,0.33-0.06,0.46-0.19c0.13-0.13,0.19-0.28,0.19-0.46c0-0.18-0.06-0.34-0.19-0.46C115.83,39.97,115.68,39.91,115.49,39.91z
		 M114.9,45.19h1.19v-3.54l-1.19,0.16V45.19z M122.87,42.75l-3.39-3.17h-0.12v5.62h1.2v-2.97l3.4,3.17h0.11v-5.65h-1.2V42.75z
		 M128.52,44.59c0.01,0.18,0.02,0.33,0.05,0.46l-1.09,0.3l-0.11-0.32c-0.15,0.11-0.29,0.19-0.43,0.24
		c-0.14,0.05-0.29,0.08-0.44,0.08c-0.44,0-0.8-0.17-1.1-0.52c-0.3-0.35-0.44-0.78-0.44-1.3c0-0.55,0.17-1,0.5-1.35
		c0.33-0.36,0.75-0.53,1.26-0.53c0.12,0,0.24,0.02,0.37,0.05c0.13,0.03,0.27,0.08,0.42,0.15l1.01-0.04v2.11
		C128.5,44.19,128.51,44.41,128.52,44.59z M127.32,42.67c-0.07-0.04-0.14-0.07-0.2-0.09c-0.06-0.02-0.13-0.03-0.19-0.03
		c-0.22,0-0.41,0.09-0.56,0.28c-0.15,0.19-0.23,0.42-0.23,0.7c0,0.27,0.07,0.49,0.2,0.66c0.13,0.18,0.3,0.26,0.49,0.26
		c0.08,0,0.16-0.02,0.24-0.06c0.08-0.04,0.17-0.1,0.25-0.19V42.67z M132.48,42.19c0.32,0.34,0.47,0.77,0.47,1.31
		c0,0.55-0.17,1-0.51,1.34c-0.34,0.34-0.79,0.51-1.34,0.51c-0.07,0-0.15,0-0.23-0.01c-0.08-0.01-0.18-0.02-0.31-0.04v1.33l-1.17,0.2
		v-5.01h1.17c0.12-0.05,0.23-0.08,0.35-0.1c0.11-0.02,0.23-0.03,0.35-0.03C131.77,41.68,132.17,41.85,132.48,42.19z M131.75,43.49
		c0-0.27-0.07-0.49-0.21-0.66c-0.14-0.18-0.31-0.26-0.52-0.26c-0.06,0-0.13,0.01-0.2,0.02c-0.07,0.01-0.16,0.04-0.26,0.07v1.77
		c0.08,0.02,0.15,0.04,0.21,0.05c0.06,0.01,0.12,0.02,0.17,0.02c0.23,0,0.42-0.09,0.57-0.28C131.68,44.01,131.75,43.77,131.75,43.49
		z M136.63,42.17c0.35,0.35,0.53,0.79,0.53,1.33s-0.18,0.98-0.53,1.33c-0.35,0.35-0.8,0.52-1.34,0.52c-0.54,0-0.98-0.17-1.33-0.52
		c-0.35-0.35-0.53-0.79-0.53-1.33s0.18-0.98,0.53-1.33c0.35-0.35,0.8-0.52,1.33-0.52C135.83,41.65,136.27,41.83,136.63,42.17z
		 M135.95,43.5c0-0.28-0.06-0.51-0.19-0.69c-0.12-0.18-0.28-0.27-0.47-0.27c-0.19,0-0.35,0.09-0.47,0.27
		c-0.12,0.18-0.19,0.41-0.19,0.69c0,0.29,0.06,0.52,0.19,0.7c0.12,0.18,0.28,0.26,0.47,0.26c0.19,0,0.35-0.09,0.47-0.27
		C135.89,44.02,135.95,43.79,135.95,43.5z M139.52,43.11l-0.4-0.15c-0.14-0.05-0.23-0.09-0.28-0.13c-0.04-0.04-0.06-0.1-0.06-0.17
		c0-0.08,0.04-0.15,0.11-0.2c0.07-0.05,0.17-0.08,0.28-0.08c0.15,0,0.32,0.04,0.5,0.11c0.18,0.07,0.34,0.17,0.49,0.3l0.15-0.82
		c-0.25-0.11-0.48-0.19-0.68-0.24c-0.2-0.05-0.4-0.08-0.58-0.08c-0.4,0-0.71,0.1-0.95,0.31c-0.24,0.21-0.36,0.48-0.36,0.82
		c0,0.24,0.07,0.45,0.22,0.62c0.15,0.18,0.36,0.31,0.65,0.41l0.44,0.15c0.13,0.05,0.22,0.09,0.27,0.14
		c0.05,0.05,0.08,0.11,0.08,0.19c0,0.09-0.04,0.16-0.11,0.21c-0.07,0.05-0.17,0.08-0.3,0.08c-0.14,0-0.29-0.03-0.46-0.1
		c-0.16-0.07-0.4-0.19-0.69-0.38v0.93c0.2,0.11,0.4,0.19,0.6,0.24c0.2,0.05,0.4,0.08,0.61,0.08c0.42,0,0.76-0.11,1-0.32
		c0.25-0.22,0.37-0.51,0.37-0.88c0-0.26-0.07-0.47-0.2-0.63C140.06,43.36,139.84,43.22,139.52,43.11z M144.08,42.17
		c0.35,0.35,0.53,0.79,0.53,1.33s-0.18,0.98-0.53,1.33c-0.35,0.35-0.8,0.52-1.34,0.52c-0.54,0-0.98-0.17-1.33-0.52
		c-0.35-0.35-0.53-0.79-0.53-1.33s0.18-0.98,0.53-1.33c0.35-0.35,0.8-0.52,1.33-0.52C143.28,41.65,143.72,41.83,144.08,42.17z
		 M143.4,43.5c0-0.28-0.06-0.51-0.19-0.69c-0.12-0.18-0.28-0.27-0.47-0.27c-0.19,0-0.35,0.09-0.47,0.27
		c-0.12,0.18-0.19,0.41-0.19,0.69c0,0.29,0.06,0.52,0.19,0.7c0.12,0.18,0.28,0.26,0.47,0.26c0.19,0,0.35-0.09,0.47-0.27
		C143.34,44.02,143.4,43.79,143.4,43.5z M151.17,42.75c0.19,0.23,0.28,0.52,0.28,0.86c0,0.52-0.19,0.92-0.58,1.18
		c-0.39,0.27-0.96,0.4-1.72,0.4h-1.47v-5.44h1.68c0.63,0,1.11,0.12,1.43,0.35c0.32,0.23,0.49,0.57,0.49,1.03
		c0,0.28-0.07,0.51-0.22,0.71c-0.15,0.19-0.37,0.34-0.67,0.45C150.72,42.36,150.98,42.52,151.17,42.75z M148.86,41.9h0.43
		c0.26,0,0.45-0.06,0.6-0.17c0.14-0.11,0.22-0.27,0.22-0.47c0-0.2-0.07-0.35-0.2-0.45c-0.14-0.1-0.35-0.14-0.64-0.14h-0.4V41.9z
		 M150.23,43.49c0-0.22-0.07-0.39-0.22-0.5c-0.14-0.12-0.35-0.18-0.62-0.18h-0.54v1.4h0.54c0.26,0,0.46-0.06,0.61-0.19
		C150.16,43.89,150.23,43.72,150.23,43.49z M155.59,44.59c0.01,0.18,0.02,0.33,0.05,0.46l-1.09,0.3l-0.11-0.32
		c-0.15,0.11-0.29,0.19-0.43,0.24c-0.14,0.05-0.29,0.08-0.44,0.08c-0.44,0-0.8-0.17-1.1-0.52c-0.3-0.35-0.44-0.78-0.44-1.3
		c0-0.55,0.17-1,0.5-1.35c0.33-0.36,0.75-0.53,1.26-0.53c0.12,0,0.24,0.02,0.37,0.05c0.13,0.03,0.27,0.08,0.42,0.15l1.01-0.04v2.11
		C155.57,44.19,155.58,44.41,155.59,44.59z M154.4,42.67c-0.07-0.04-0.14-0.07-0.2-0.09c-0.06-0.02-0.13-0.03-0.19-0.03
		c-0.22,0-0.41,0.09-0.56,0.28c-0.15,0.19-0.23,0.42-0.23,0.7c0,0.27,0.07,0.49,0.2,0.66c0.13,0.18,0.3,0.26,0.49,0.26
		c0.08,0,0.16-0.02,0.24-0.06c0.08-0.04,0.17-0.1,0.25-0.19V42.67z M157.87,40.64l-1.2,0.16v1.01h-0.49v0.89h0.49v1.35
		c0,0.41,0.03,0.69,0.1,0.85c0.07,0.16,0.18,0.28,0.35,0.36l1.34-0.09c-0.23-0.12-0.38-0.24-0.46-0.38
		c-0.08-0.14-0.12-0.36-0.12-0.66V42.7h0.8v-0.89h-0.8V40.64z M162.56,44.59c0.01,0.18,0.02,0.33,0.05,0.46l-1.09,0.3l-0.11-0.32
		c-0.15,0.11-0.29,0.19-0.43,0.24c-0.14,0.05-0.29,0.08-0.44,0.08c-0.44,0-0.8-0.17-1.1-0.52c-0.3-0.35-0.44-0.78-0.44-1.3
		c0-0.55,0.17-1,0.5-1.35c0.33-0.36,0.75-0.53,1.26-0.53c0.12,0,0.24,0.02,0.37,0.05c0.13,0.03,0.27,0.08,0.42,0.15l1.01-0.04v2.11
		C162.54,44.19,162.55,44.41,162.56,44.59z M161.36,42.67c-0.07-0.04-0.14-0.07-0.2-0.09c-0.06-0.02-0.13-0.03-0.19-0.03
		c-0.22,0-0.41,0.09-0.56,0.28c-0.15,0.19-0.23,0.42-0.23,0.7c0,0.27,0.07,0.49,0.2,0.66c0.13,0.18,0.3,0.26,0.49,0.26
		c0.08,0,0.16-0.02,0.24-0.06c0.08-0.04,0.17-0.1,0.25-0.19V42.67z M166.84,41.81h-1.23l-1.04,1.39v-3.53l-1.14,0.16v5.35h1.14v-1.8
		l1.25,1.8h1.3l-1.45-1.94L166.84,41.81z M58.87,28.13h4.32v-3.96h-4.32V20h8.25v-4.34H54.52v21.08h12.7V32.3h-8.36V28.13z
		 M76.38,36.73h-5.43V15.65h5.43c3.82,0,6.81,0.94,8.97,2.82c2.16,1.88,3.24,4.45,3.24,7.72c0,1.96-0.43,3.7-1.28,5.21
		c-0.86,1.52-2.11,2.76-3.76,3.74c-0.94,0.56-1.96,0.97-3.07,1.21C79.37,36.61,78.01,36.73,76.38,36.73z M75.78,32.21h1.07
		c2.13,0,3.8-0.53,5.01-1.6c1.2-1.07,1.8-2.54,1.8-4.42c0-1.88-0.6-3.36-1.8-4.43c-1.2-1.08-2.87-1.61-5.01-1.61h-1.07V32.21z
		 M137.81,36.73h2.43h2.45V19.92h6.47v-4.27h-17.85v4.27h6.5V36.73z M151.1,36.73h-4.9l10.42-21.08h0.31l7.2,14.89l0.59,1.23
		c0,0,0,0,0,0l2.4,4.97h-5.1L160.86,34c-1.32,0.47-2.73,0.73-4.2,0.73c-1.54,0-3.01-0.28-4.37-0.79L151.1,36.73z M156.56,23.83
		l-2.78,6.57c0.9,0.32,1.87,0.49,2.88,0.49c0.94,0,1.85-0.15,2.7-0.44L156.56,23.83z M115.77,28.63V15.65h-4.5v21.08h4.5l8.7-13v13
		h4.5V15.65h-4.5L115.77,28.63z M37.1,25.54l8.64,11.19h6.09l-9.11-11.81l7.15-9.27h-6.09l-0.01,0.01L37.1,24.3V3.18L31.9,4.05
		v32.68h5.21V25.54z"/>
</g>
</svg>
